<svg width="2190" height="995" viewBox="0 0 2190 995" fill="none" xmlns="http://www.w3.org/2000/svg">
<path d="M115.18 120.168C110.264 149.664 105.348 179.161 92.9833 258.265C80.6186 337.369 60.9544 465.186 50.8243 553.154C40.6942 641.122 40.6942 685.367 40.6942 730.952" stroke="black" stroke-width="80" stroke-linecap="round"/>
<path d="M477.486 120C472.57 149.496 467.654 178.993 455.289 258.097C442.924 337.201 423.26 465.018 413.13 552.986C403 640.954 403 685.199 403 730.784" stroke="black" stroke-width="80" stroke-linecap="round"/>
<path d="M90.3514 418.111C91.9901 418.111 93.6288 418.111 145.272 417.292C196.916 416.473 298.515 414.834 403.192 413.146" stroke="black" stroke-width="80" stroke-linecap="round"/>
<path d="M601.821 418.111C601.821 421.389 610.014 437.825 637.177 480.655C685.642 549.703 732.42 608.299 759.706 634.766C770.606 644.846 775.522 648.124 790.519 661.432" stroke="black" stroke-width="80" stroke-linecap="round"/>
<path d="M949.422 408.18C941.178 422.978 924.692 462.605 897.406 508.935C887.824 525.203 876.823 548.412 849.611 588.088C822.398 627.764 779.792 683.48 721.793 745.775C663.793 808.07 591.691 875.256 552.089 911.506C512.488 947.756 507.572 951.033 497.541 954.41" stroke="black" stroke-width="80" stroke-linecap="round"/>
<path d="M1083.5 393.283C1081.86 408.131 1075.25 434.499 1074.38 569.045C1074.1 612.365 1095.02 631.538 1114.04 646.485C1135.02 662.981 1164.44 664.709 1187.7 671.339C1233.87 684.494 1311.82 673.052 1335.83 665.603C1358.91 658.443 1373.1 636.703 1381.41 616.815C1389.5 597.475 1391.37 567.282 1395.49 536.569C1397.98 505.906 1401.3 476.211 1405.42 443.933C1406.27 429.93 1406.27 406.988 1406.27 383.352" stroke="black" stroke-width="80" stroke-linecap="round"/>
<path d="M1599.93 40.7163C1596.65 84.9609 1593.38 129.205 1592.51 230.655C1591.64 332.105 1593.28 489.419 1594.97 651.5" stroke="black" stroke-width="80" stroke-linecap="round"/>
<path d="M1609.86 358.523C1618.11 343.675 1631.31 323.862 1686.61 296.55C1718.31 280.892 1766.78 259.307 1900.68 259.183C1976.09 259.113 2038.4 285.626 2062.49 303.825C2090.23 324.791 2119.54 355.047 2135.36 388.168C2159.84 439.429 2146.16 500.542 2140.4 537.164C2132.31 588.633 2091.74 626.473 2061.84 645.665C2036.48 661.948 1997.39 672.952 1920.74 680.45C1874.11 685.013 1790.32 681.295 1739.07 679.656C1671.44 674.74 1646.36 669.724 1630.67 667.242C1623.17 666.397 1616.62 666.397 1614.83 661.432" stroke="black" stroke-width="80" stroke-linecap="round"/>
<path d="M1729.04 398.249H1738.97" stroke="black" stroke-width="80" stroke-linecap="round"/>
<path d="M1942.57 393.283H1957.46" stroke="black" stroke-width="80" stroke-linecap="round"/>
<path d="M1724.07 487.631C1724.07 494.186 1724.07 513.95 1728.17 542.056C1729.96 554.34 1740.46 560.33 1747.96 564.526C1779.67 582.273 1829.84 575.326 1956.15 574.556C1982.24 572.098 1987.16 567.182 1989.69 553.998C1992.22 540.814 1992.22 519.511 1992.22 497.563" stroke="black" stroke-width="80" stroke-linecap="round"/>
</svg>
